<svg xmlns="http://www.w3.org/2000/svg" width="1387" height="756" viewBox="0 0 1387 756">
<g>
<path d="M 569.78 333.16 C565.20,337.85 562.03,339.31 561.97,336.75 C561.95,336.06 561.87,325.99 561.78,314.37 C561.77,312.78 561.75,311.31 561.74,309.93 C561.63,299.52 561.59,294.99 563.30,291.25 C564.85,287.87 567.83,285.15 573.52,279.33 C578.18,274.56 582.00,270.12 582.00,269.45 C582.00,268.79 583.26,267.72 584.81,267.08 C586.35,266.44 588.42,264.56 589.40,262.90 C590.38,261.24 592.50,258.45 594.10,256.69 C595.71,254.94 597.94,252.49 599.05,251.25 C600.16,250.01 601.74,249.00 602.55,249.00 C603.37,249.00 604.78,247.43 605.70,245.50 C606.62,243.57 607.71,242.00 608.12,242.00 C608.54,242.00 610.32,239.98 612.09,237.52 C613.87,235.05 616.03,232.78 616.91,232.46 C617.78,232.15 620.53,229.40 623.00,226.35 C625.47,223.31 633.58,214.52 641.00,206.83 C648.42,199.14 654.82,192.28 655.21,191.58 C655.60,190.89 659.65,186.52 664.21,181.88 C668.77,177.24 673.71,172.10 675.18,170.47 C676.66,168.84 679.36,166.06 681.19,164.30 L 684.51 161.09 L 707.76 161.16 C720.54,161.20 731.00,161.36 731.00,161.51 C731.00,161.81 728.93,164.07 717.73,176.00 C705.44,189.09 700.71,194.22 690.58,205.50 C685.15,211.55 677.93,219.43 674.53,223.00 C671.14,226.57 661.67,236.70 653.50,245.50 C645.32,254.30 637.46,262.00 636.02,262.62 C634.58,263.23 632.69,264.82 631.82,266.16 C629.51,269.68 621.25,278.00 620.06,278.00 C619.50,278.00 618.76,279.12 618.41,280.48 C618.07,281.85 616.24,283.92 614.34,285.10 C612.45,286.27 610.14,288.41 609.22,289.86 C608.29,291.31 606.40,293.67 605.02,295.09 C603.63,296.52 600.28,300.00 597.58,302.83 C594.87,305.66 591.87,308.22 590.91,308.53 C589.95,308.83 588.74,310.30 588.22,311.79 C587.34,314.31 581.12,321.52 569.78,333.16 ZM 746.00 481.88 C746.00,484.50 738.27,481.58 731.41,476.35 C729.70,475.06 727.80,474.00 727.19,474.00 C726.57,474.00 725.06,472.65 723.84,471.00 C722.62,469.35 720.89,468.00 719.99,468.00 C719.09,468.00 717.29,466.88 716.00,465.50 C714.71,464.12 713.03,463.00 712.28,463.00 C709.98,463.00 704.75,459.93 700.11,455.85 C697.69,453.73 695.28,452.00 694.74,452.00 C694.19,452.00 689.42,449.11 684.13,445.58 C673.29,438.37 670.59,435.45 659.82,419.35 C657.24,415.50 654.43,411.77 653.57,411.06 C652.70,410.34 652.00,409.12 652.00,408.33 C652.00,407.55 650.03,404.80 647.62,402.21 C645.21,399.62 642.38,395.89 641.34,393.92 C639.53,390.53 637.83,388.13 631.95,380.71 C629.73,377.90 626.49,373.10 617.31,358.95 C616.04,356.99 615.00,354.95 615.00,354.41 C615.00,353.41 617.38,350.14 622.25,344.45 C623.76,342.68 625.00,340.83 625.00,340.33 C625.00,338.93 633.68,332.00 635.43,332.00 C636.28,332.00 638.11,333.69 639.49,335.75 C640.88,337.81 644.05,341.98 646.54,345.00 C649.03,348.02 652.71,352.98 654.72,356.00 C656.72,359.02 658.96,361.86 659.69,362.31 C660.42,362.75 662.09,365.22 663.40,367.81 C664.71,370.39 666.78,373.40 668.00,374.50 C669.22,375.60 671.06,378.16 672.10,380.20 C673.14,382.23 674.59,384.25 675.33,384.70 C676.08,385.14 678.32,387.98 680.31,391.00 C685.42,398.76 694.40,410.89 697.86,414.72 C698.97,415.94 701.50,419.87 703.50,423.44 C705.50,427.01 709.06,432.09 711.42,434.72 C713.78,437.35 716.51,441.08 717.49,443.00 C718.48,444.92 720.38,447.85 721.73,449.50 C723.08,451.15 726.86,456.10 730.13,460.50 C739.85,473.57 740.38,474.25 743.25,477.58 C744.76,479.33 746.00,481.27 746.00,481.88 Z" fill="rgb(14,125,237)"/>
<path d="M 635.59 262.82 C635.74,262.75 635.88,262.68 636.02,262.62 C637.46,262.00 645.32,254.30 653.50,245.50 C661.67,236.70 671.14,226.57 674.53,223.00 C677.93,219.43 685.15,211.55 690.58,205.50 C700.71,194.22 705.44,189.09 717.73,176.00 C728.93,164.07 731.00,161.81 731.00,161.51 C731.00,161.40 725.79,161.29 718.23,161.22 C727.65,161.17 731.97,160.76 731.50,160.00 C731.09,159.34 739.99,159.00 757.44,159.00 C772.05,159.00 784.00,159.27 784.00,159.61 C784.00,159.94 778.04,166.78 770.75,174.81 C763.46,182.84 748.79,199.10 738.14,210.95 C727.49,222.80 714.89,236.77 710.14,241.98 C705.39,247.20 699.03,254.24 696.00,257.64 C692.97,261.03 689.95,263.64 689.28,263.44 C688.60,263.25 676.02,263.02 661.31,262.95 ZM 706.45 161.16 L 684.51 161.09 L 681.19 164.30 C680.53,164.93 679.77,165.69 678.98,166.48 C679.82,165.63 680.65,164.81 681.36,164.12 L 684.85 160.74 L 699.68 161.04 C702.07,161.09 704.33,161.13 706.45,161.16 ZM 621.25 277.32 C622.61,276.27 624.83,274.16 626.93,271.95 C624.48,274.62 622.39,276.61 621.25,277.32 ZM 618.40 280.55 C618.06,281.88 616.24,283.92 614.35,285.09 C616.24,283.92 618.07,281.85 618.41,280.48 C618.74,279.17 619.44,278.09 619.99,278.01 C619.28,278.58 618.64,279.57 618.40,280.55 ZM 631.29 266.91 C631.49,266.64 631.67,266.39 631.82,266.16 C632.13,265.67 632.58,265.16 633.10,264.66 L 632.70 265.16 C632.23,265.75 631.76,266.33 631.29,266.91 Z" fill="rgb(16,211,220)"/>
<path d="M 756.81 491.75 C759.03,494.72 759.07,495.00 757.37,494.96 C756.34,494.94 751.90,492.54 747.50,489.64 C738.20,483.49 718.01,470.48 706.50,463.23 C673.57,442.47 671.90,441.18 664.46,430.73 C660.63,425.36 652.77,414.33 646.98,406.23 C624.71,375.03 611.00,355.13 611.00,353.99 C611.00,352.54 632.52,328.33 634.97,327.01 C636.89,325.99 638.07,327.41 652.87,348.50 C656.73,354.00 664.30,364.51 669.70,371.86 C686.40,394.63 697.86,410.37 700.02,413.50 C701.15,415.15 704.43,419.70 707.29,423.61 C710.16,427.53 715.88,435.39 720.00,441.08 C724.12,446.78 729.53,454.15 732.02,457.47 C734.50,460.79 740.55,469.12 745.46,476.00 C750.36,482.88 755.47,489.96 756.81,491.75 ZM 746.00 481.88 C746.00,481.27 744.76,479.33 743.25,477.58 C740.38,474.25 739.85,473.57 730.13,460.50 C726.86,456.10 723.08,451.15 721.73,449.50 C720.38,447.85 718.48,444.92 717.49,443.00 C716.51,441.08 713.78,437.35 711.42,434.72 C709.06,432.09 705.50,427.01 703.50,423.44 C701.50,419.87 698.97,415.94 697.86,414.72 C694.40,410.89 685.42,398.76 680.31,391.00 C678.32,387.98 676.08,385.14 675.33,384.70 C674.59,384.25 673.14,382.23 672.10,380.20 C671.06,378.16 669.22,375.60 668.00,374.50 C666.78,373.40 664.71,370.39 663.40,367.81 C662.09,365.22 660.42,362.75 659.69,362.31 C658.96,361.86 656.72,359.02 654.72,356.00 C652.71,352.98 649.03,348.02 646.54,345.00 C644.05,341.98 640.88,337.81 639.49,335.75 C638.11,333.69 636.28,332.00 635.43,332.00 C633.68,332.00 625.00,338.93 625.00,340.33 C625.00,340.83 623.76,342.68 622.25,344.45 C617.38,350.14 615.00,353.41 615.00,354.41 C615.00,354.95 616.04,356.99 617.31,358.95 C626.49,373.10 629.73,377.90 631.95,380.71 C637.83,388.13 639.53,390.53 641.34,393.92 C642.38,395.89 645.21,399.62 647.62,402.21 C650.03,404.80 652.00,407.55 652.00,408.33 C652.00,409.12 652.70,410.34 653.57,411.06 C654.43,411.77 657.24,415.50 659.82,419.35 C670.59,435.45 673.29,438.37 684.13,445.58 C689.42,449.11 694.19,452.00 694.74,452.00 C695.28,452.00 697.69,453.73 700.11,455.85 C704.75,459.93 709.98,463.00 712.28,463.00 C713.03,463.00 714.71,464.12 716.00,465.50 C717.29,466.88 719.09,468.00 719.99,468.00 C720.89,468.00 722.62,469.35 723.84,471.00 C725.06,472.65 726.57,474.00 727.19,474.00 C727.80,474.00 729.70,475.06 731.41,476.35 C738.27,481.58 746.00,484.50 746.00,481.88 ZM 569.78 333.16 C581.12,321.52 587.34,314.31 588.22,311.79 C588.74,310.30 589.95,308.83 590.91,308.53 C591.87,308.22 594.87,305.66 597.58,302.83 C600.28,300.00 603.63,296.52 605.02,295.09 C606.40,293.67 608.29,291.31 609.22,289.86 C610.14,288.41 612.45,286.27 614.34,285.10 C614.35,285.10 614.35,285.09 614.35,285.09 C616.24,283.92 618.06,281.88 618.40,280.55 C618.64,279.57 619.28,278.58 619.99,278.01 C620.01,278.00 620.03,278.00 620.06,278.00 C620.26,278.00 620.68,277.75 621.25,277.32 C622.39,276.61 624.48,274.62 626.93,271.95 C628.63,270.16 630.26,268.30 631.29,266.91 C631.76,266.33 632.23,265.75 632.70,265.16 L 633.10 264.66 C633.86,263.93 634.77,263.25 635.59,262.82 L 661.31 262.95 C676.02,263.02 688.60,263.25 689.28,263.44 C689.95,263.64 692.97,261.03 696.00,257.64 C699.03,254.24 705.39,247.20 710.14,241.98 C705.39,247.20 699.03,254.24 696.00,257.64 L 690.50 263.81 L 663.71 263.91 C637.32,264.00 636.88,264.03 634.64,266.25 C633.39,267.49 624.92,276.60 615.82,286.50 C593.58,310.69 592.12,312.28 576.80,329.15 C569.49,337.21 562.94,344.06 562.27,344.36 C559.34,345.69 558.83,340.82 559.17,315.16 L 559.51 289.50 L 564.01 285.00 C566.49,282.52 577.74,270.58 589.01,258.46 C600.28,246.34 625.70,219.01 645.50,197.72 L 681.50 159.01 L 732.75 159.00 C738.34,159.00 743.72,159.01 748.77,159.03 C737.06,159.14 731.17,159.46 731.50,160.00 C731.97,160.76 727.65,161.17 718.23,161.22 C715.08,161.20 711.52,161.17 707.76,161.16 L 706.45 161.16 C704.33,161.13 702.07,161.09 699.68,161.04 L 684.85 160.74 L 681.36 164.12 C680.65,164.80 679.83,165.62 679.00,166.46 L 678.98 166.48 C677.58,167.90 676.13,169.42 675.18,170.47 C673.71,172.10 668.77,177.24 664.21,181.88 C659.65,186.52 655.60,190.89 655.21,191.58 C654.82,192.28 648.42,199.14 641.00,206.83 C633.58,214.52 625.47,223.31 623.00,226.35 C620.53,229.40 617.78,232.15 616.91,232.46 C616.03,232.78 613.87,235.05 612.09,237.52 C610.32,239.98 608.54,242.00 608.12,242.00 C607.71,242.00 606.62,243.57 605.70,245.50 C604.78,247.43 603.37,249.00 602.55,249.00 C601.74,249.00 600.16,250.01 599.05,251.25 C597.94,252.49 595.71,254.94 594.10,256.69 C592.50,258.45 590.38,261.24 589.40,262.90 C588.42,264.56 586.35,266.44 584.81,267.08 C583.26,267.72 582.00,268.79 582.00,269.45 C582.00,270.12 578.18,274.56 573.52,279.33 C567.83,285.15 564.85,287.87 563.30,291.25 C561.59,294.99 561.63,299.52 561.74,309.93 C561.75,311.31 561.77,312.78 561.78,314.37 C561.87,325.99 561.95,336.06 561.97,336.75 C562.03,339.31 565.20,337.85 569.78,333.16 Z" fill="rgb(43,113,214)"/>
<path d="M 758.53 494.38 C759.39,495.64 759.85,496.38 759.79,496.42 C758.89,496.94 749.75,495.24 749.18,494.43 C748.58,493.58 744.82,491.01 733.00,483.36 C731.08,482.11 727.70,480.35 725.50,479.45 C723.30,478.55 720.60,477.01 719.50,476.03 C715.59,472.57 707.00,467.00 705.55,467.00 C704.74,467.00 703.14,465.99 701.98,464.75 C700.83,463.51 698.63,461.83 697.08,461.00 C695.54,460.17 692.39,458.24 690.07,456.70 C686.09,454.04 684.08,452.85 675.25,447.90 C669.85,444.87 667.98,442.97 666.32,438.85 C665.52,436.84 663.32,433.79 661.43,432.08 C659.55,430.36 656.70,426.38 655.10,423.23 C653.51,420.08 651.03,416.49 649.60,415.26 C648.17,414.02 647.00,412.48 647.00,411.82 C647.00,411.17 646.04,409.60 644.86,408.35 C643.68,407.10 642.21,405.05 641.59,403.79 C640.97,402.53 639.44,401.05 638.19,400.50 C636.94,399.95 635.65,398.38 635.32,397.00 C634.32,392.87 630.25,386.56 627.03,384.18 C625.36,382.95 624.00,381.07 624.00,380.01 C624.00,378.95 623.18,377.27 622.17,376.29 C621.17,375.31 618.92,372.36 617.17,369.75 C615.43,367.14 612.65,363.01 611.00,360.59 C609.35,358.16 608.00,355.40 608.00,354.45 C608.00,351.83 611.41,346.89 616.71,341.82 C619.34,339.30 623.68,334.48 626.34,331.10 C629.00,327.73 632.10,324.48 633.21,323.89 C634.68,323.10 635.05,323.10 634.56,323.90 C634.19,324.51 634.47,325.00 635.19,325.01 C635.91,325.01 637.26,326.25 638.19,327.76 C638.59,328.41 639.50,329.75 640.79,331.62 C637.02,326.67 636.13,326.40 634.97,327.01 C632.52,328.33 611.00,352.54 611.00,353.99 C611.00,355.13 624.71,375.03 646.98,406.23 C652.77,414.33 660.63,425.36 664.46,430.73 C671.90,441.18 673.57,442.47 706.50,463.23 C718.01,470.48 738.20,483.49 747.50,489.64 C751.90,492.54 756.34,494.94 757.37,494.96 C758.29,494.98 758.70,494.91 758.53,494.38 ZM 559.00 349.95 C559.00,350.45 557.54,351.86 555.75,353.09 C553.33,354.75 553.90,353.84 558.00,349.51 C561.03,346.33 562.96,344.02 562.30,344.39 C561.31,344.94 560.60,344.69 560.10,343.11 C560.59,344.56 561.30,344.80 562.27,344.36 C562.94,344.06 569.49,337.21 576.80,329.15 C592.12,312.28 593.58,310.69 615.82,286.50 C624.92,276.60 633.39,267.49 634.64,266.25 C636.88,264.03 637.32,264.00 663.71,263.91 L 688.42 263.82 C687.49,264.09 686.41,264.27 685.00,264.47 C679.72,265.21 648.66,265.46 642.55,264.81 C640.26,264.57 639.32,265.04 638.39,266.88 C637.73,268.19 633.63,272.91 629.27,277.38 C624.92,281.85 621.07,286.29 620.71,287.26 C620.35,288.23 619.03,289.51 617.78,290.12 C616.53,290.73 613.70,293.45 611.50,296.18 C607.06,301.67 603.59,305.26 599.13,308.98 C597.50,310.34 595.38,312.79 594.41,314.42 C592.74,317.25 580.89,330.82 577.31,334.00 C576.39,334.83 574.70,336.58 573.56,337.91 C569.05,343.17 565.35,346.36 562.25,347.66 C560.46,348.41 559.00,349.44 559.00,349.95 ZM 486.23 496.29 C488.20,496.67 488.14,496.75 485.75,496.86 C483.44,496.98 483.00,496.60 483.00,494.47 C483.00,492.98 483.72,491.67 484.75,491.27 C487.00,490.42 489.00,488.44 489.00,487.06 C489.00,486.47 492.68,482.28 497.18,477.74 C508.07,466.78 510.16,464.46 514.86,458.13 C517.05,455.18 519.89,452.25 521.17,451.62 C522.45,450.99 524.19,449.13 525.03,447.49 C528.34,441.05 532.28,436.13 535.04,434.98 C536.63,434.33 539.95,431.25 542.41,428.14 C548.79,420.11 549.85,419.00 551.17,419.00 C551.82,419.00 551.44,420.01 550.32,421.25 C527.05,447.11 518.04,457.12 515.44,460.00 C509.47,466.62 495.45,482.51 489.71,489.18 C484.34,495.41 484.11,495.88 486.23,496.29 ZM 527.25 226.51 C534.82,237.78 540.89,247.00 540.75,246.99 C540.61,246.99 539.18,246.12 537.57,245.05 C534.58,243.08 532.10,239.56 532.04,237.18 C532.00,235.71 526.08,226.69 524.81,226.17 C524.36,225.98 524.00,225.30 524.00,224.64 C524.00,223.98 523.10,222.79 522.00,222.00 C520.90,221.21 520.00,219.98 520.00,219.28 C520.00,218.58 519.47,218.00 518.83,218.00 C518.19,218.00 517.94,217.73 518.27,217.39 C518.61,217.06 517.79,215.61 516.46,214.18 C514.01,211.53 511.53,205.99 512.80,206.01 C513.19,206.02 519.69,215.24 527.25,226.51 ZM 511.38 203.75 C512.77,206.12 511.33,204.99 508.42,201.44 C506.81,199.48 504.12,196.21 502.43,194.19 C500.74,192.16 498.75,188.93 498.00,187.00 C496.79,183.90 493.79,179.62 489.58,175.00 C487.29,172.49 482.88,164.00 483.86,164.00 C484.70,164.00 506.72,195.80 511.38,203.75 ZM 563.21 285.80 L 559.51 289.50 L 559.49 290.88 L 556.76 293.94 C555.26,295.62 553.72,297.00 553.34,297.00 C552.96,297.00 553.65,295.94 554.87,294.64 C556.09,293.34 557.02,291.87 556.93,291.39 C556.48,288.96 557.12,287.83 558.62,288.41 C559.50,288.75 559.97,288.92 563.21,285.80 ZM 550.06 260.25 C551.76,263.20 549.32,262.26 547.07,259.10 C544.40,255.35 544.39,252.68 547.05,256.00 C548.15,257.38 549.51,259.29 550.06,260.25 ZM 749.39 481.37 C751.65,484.51 753.73,487.45 755.43,489.87 C753.25,486.87 749.29,481.37 745.46,476.00 C743.15,472.76 740.58,469.20 738.26,466.00 C741.64,470.63 745.79,476.36 749.39,481.37 ZM 726.28 449.69 C724.19,446.85 721.95,443.78 720.00,441.08 C715.88,435.39 710.16,427.53 707.29,423.61 C710.16,427.53 715.88,435.39 720.00,441.08 C721.87,443.66 724.11,446.73 726.28,449.69 ZM 668.38 370.07 C668.82,370.67 669.26,371.27 669.70,371.86 C671.80,374.72 673.81,377.47 675.73,380.09 C673.81,377.47 671.79,374.72 669.70,371.86 C669.27,371.28 668.83,370.68 668.38,370.07 Z" fill="rgb(52,29,136)"/>
<path d="M 559.00 349.95 C559.00,349.44 560.46,348.41 562.25,347.66 C565.35,346.36 569.05,343.17 573.56,337.91 C574.70,336.58 576.39,334.83 577.31,334.00 C580.89,330.82 592.74,317.25 594.41,314.42 C595.38,312.79 597.50,310.34 599.13,308.98 C603.59,305.26 607.06,301.67 611.50,296.18 C613.70,293.45 616.53,290.73 617.78,290.12 C619.03,289.51 620.35,288.23 620.71,287.26 C621.07,286.29 624.92,281.85 629.27,277.38 C633.31,273.24 637.13,268.87 638.19,267.22 C638.23,267.46 638.32,267.71 638.47,267.96 C638.83,268.53 639.43,268.97 639.81,268.94 C642.17,268.72 652.32,266.13 651.50,265.96 C650.95,265.84 649.60,265.62 648.50,265.46 C647.90,265.37 646.95,265.21 645.94,265.01 C654.11,265.31 671.55,265.19 680.39,264.80 C679.15,265.36 678.90,266.17 679.73,267.17 C680.33,267.90 680.98,268.79 681.16,269.15 C681.68,270.14 677.82,274.04 674.75,275.63 C673.23,276.42 670.86,278.73 669.49,280.78 C664.70,287.90 660.90,292.43 658.21,294.20 C656.72,295.18 655.86,295.99 656.29,295.99 C656.72,296.00 656.18,296.97 655.07,298.15 C653.97,299.33 653.35,300.75 653.69,301.31 C654.03,301.86 653.85,302.03 653.29,301.68 C652.08,300.93 645.83,307.50 646.82,308.48 C647.19,308.86 646.88,309.02 646.11,308.83 C645.35,308.65 643.21,310.52 641.35,313.00 C639.49,315.48 637.52,318.05 636.97,318.72 C635.83,320.12 634.99,322.03 634.76,323.37 C634.69,323.19 634.20,323.36 633.21,323.89 C632.10,324.48 629.00,327.73 626.34,331.10 C623.68,334.48 619.34,339.30 616.71,341.82 C611.41,346.89 608.00,351.83 608.00,354.45 C608.00,355.40 609.35,358.16 611.00,360.59 C612.65,363.01 615.43,367.14 617.17,369.75 C618.92,372.36 621.17,375.31 622.17,376.29 C623.18,377.27 624.00,378.95 624.00,380.01 C624.00,381.07 625.36,382.95 627.03,384.18 C630.25,386.56 634.32,392.87 635.32,397.00 C635.65,398.38 636.94,399.95 638.19,400.50 C639.44,401.05 640.97,402.53 641.59,403.79 C642.21,405.05 643.68,407.10 644.86,408.35 C646.04,409.60 647.00,411.17 647.00,411.82 C647.00,412.48 648.17,414.02 649.60,415.26 C651.03,416.49 653.51,420.08 655.10,423.23 C656.70,426.38 659.55,430.36 661.43,432.08 C663.32,433.79 665.52,436.84 666.32,438.85 C667.98,442.97 669.85,444.87 675.25,447.90 C684.08,452.85 686.09,454.04 690.07,456.70 C692.39,458.24 695.54,460.17 697.08,461.00 C698.63,461.83 700.83,463.51 701.98,464.75 C703.14,465.99 704.74,467.00 705.55,467.00 C707.00,467.00 715.59,472.57 719.50,476.03 C720.60,477.01 723.30,478.55 725.50,479.45 C727.70,480.35 731.08,482.11 733.00,483.36 C744.82,491.01 748.58,493.58 749.18,494.43 C749.46,494.83 751.78,495.43 754.18,495.89 C749.92,495.52 730.87,495.23 710.45,495.23 C677.73,495.23 670.91,494.99 667.83,493.70 C665.81,492.86 663.83,492.47 663.42,492.84 C663.01,493.20 662.99,492.96 663.37,492.30 C664.10,491.03 658.48,486.29 656.81,486.77 C656.28,486.93 656.12,486.62 656.45,486.09 C656.77,485.56 656.17,482.84 655.11,480.05 C653.32,475.34 650.38,471.59 642.28,463.65 C640.51,461.92 638.39,458.57 637.56,456.21 C636.74,453.85 634.70,450.77 633.03,449.37 C631.36,447.97 630.00,446.22 630.00,445.49 C630.00,444.75 628.88,442.82 627.50,441.18 C626.12,439.55 625.00,437.81 625.00,437.32 C625.00,436.49 623.65,434.72 616.72,426.48 C615.19,424.66 614.01,422.80 614.09,422.34 C614.70,418.86 613.90,417.79 611.01,418.21 C609.36,418.45 608.22,418.45 608.47,418.19 C608.72,417.94 608.30,416.84 607.54,415.75 C606.78,414.66 606.38,413.17 606.66,412.43 C607.26,410.89 605.77,408.56 600.59,402.97 C598.51,400.72 597.20,398.48 597.60,397.83 C598.02,397.16 597.87,396.96 597.23,397.36 C596.59,397.75 594.42,394.98 591.92,390.59 C587.87,383.47 586.19,382.05 581.80,382.01 C579.73,382.00 574.20,387.56 572.87,391.00 C572.33,392.38 569.25,395.52 566.02,398.00 C559.71,402.84 558.59,405.05 559.54,410.81 C559.92,413.12 559.81,414.02 559.25,413.22 C558.59,412.29 556.90,413.62 552.92,418.22 C552.29,418.95 551.63,419.71 550.89,420.56 C551.55,419.65 551.70,419.00 551.17,419.00 C549.85,419.00 548.79,420.11 542.41,428.14 C539.95,431.25 536.63,434.33 535.04,434.98 C532.28,436.13 528.34,441.05 525.03,447.49 C524.19,449.13 522.45,450.99 521.17,451.62 C519.89,452.25 517.05,455.18 514.86,458.13 C510.16,464.46 508.07,466.78 497.18,477.74 C492.68,482.28 489.00,486.47 489.00,487.06 C489.00,488.44 487.00,490.42 484.75,491.27 C483.75,491.65 483.05,492.89 483.00,494.31 C482.88,493.64 482.77,492.80 482.65,491.75 C481.95,485.97 482.01,423.13 482.71,426.75 C482.94,427.99 483.46,429.00 483.84,429.00 C484.91,429.00 497.88,415.49 515.52,396.00 C524.23,386.38 534.77,374.89 538.93,370.48 C544.21,364.89 549.87,358.72 554.32,353.77 C554.26,354.02 554.75,353.77 555.75,353.09 C557.54,351.86 559.00,350.45 559.00,349.95 ZM 511.38 203.75 C510.47,202.20 508.90,199.73 506.94,196.77 C507.51,197.60 508.03,198.35 508.47,199.00 C510.76,202.34 514.27,207.48 518.37,213.51 C515.17,208.94 513.02,206.02 512.80,206.01 C511.53,205.99 514.01,211.53 516.46,214.18 C517.79,215.61 518.61,217.06 518.27,217.39 C517.94,217.73 518.19,218.00 518.83,218.00 C519.47,218.00 520.00,218.58 520.00,219.28 C520.00,219.98 520.90,221.21 522.00,222.00 C523.10,222.79 524.00,223.98 524.00,224.64 C524.00,225.30 524.36,225.98 524.81,226.17 C526.08,226.69 532.00,235.71 532.04,237.18 C532.10,239.56 534.58,243.08 537.57,245.05 C539.18,246.12 540.61,246.99 540.75,246.99 C540.86,247.00 537.29,241.55 532.20,233.90 C537.73,242.07 543.20,250.17 547.56,256.65 C547.39,256.43 547.22,256.21 547.05,256.00 C544.39,252.68 544.40,255.35 547.07,259.10 C549.17,262.05 551.43,263.06 550.35,260.80 C556.47,269.82 558.70,272.43 559.18,271.21 C559.77,269.74 559.86,269.78 559.90,271.50 C559.92,272.60 559.28,274.37 558.47,275.44 C556.38,278.21 556.48,287.59 558.62,288.41 C557.12,287.83 556.48,288.96 556.93,291.39 C557.02,291.87 556.09,293.34 554.87,294.64 C553.65,295.94 552.96,297.00 553.34,297.00 C553.58,297.00 554.29,296.44 555.17,295.60 L 555.00 295.78 C552.53,298.37 544.88,306.37 538.00,313.54 C531.12,320.72 519.45,333.09 512.06,341.04 C492.19,362.43 487.56,367.32 485.41,369.19 C483.49,370.87 483.47,369.77 483.48,267.44 C483.49,216.35 483.73,173.60 484.03,165.41 C484.99,167.94 487.88,173.13 489.58,175.00 C493.79,179.62 496.79,183.90 498.00,187.00 C498.75,188.93 500.74,192.16 502.43,194.19 C504.12,196.21 506.81,199.48 508.42,201.44 C511.33,204.99 512.77,206.12 511.38,203.75 ZM 484.10 164.19 C484.11,164.06 484.13,164.00 484.14,164.00 C484.49,164.00 488.80,169.96 493.71,177.25 C494.28,178.10 494.88,178.99 495.50,179.90 C490.14,172.18 485.27,165.41 484.10,164.19 ZM 547.86 423.99 C542.76,429.72 534.11,439.33 515.44,460.00 C517.95,457.23 526.41,447.83 547.86,423.99 ZM 634.72 323.59 C634.62,324.43 634.77,325.00 635.27,325.01 C635.95,325.01 637.26,326.25 638.19,327.76 C637.26,326.25 635.91,325.01 635.19,325.01 C634.47,325.00 634.19,324.51 634.56,323.90 C634.64,323.78 634.69,323.68 634.72,323.59 ZM 758.53 494.38 C758.49,494.24 758.42,494.08 758.30,493.88 C759.37,495.41 760.00,496.33 760.00,496.39 C760.00,496.42 759.91,496.44 759.74,496.44 C759.76,496.43 759.78,496.42 759.79,496.42 C759.85,496.38 759.39,495.64 758.53,494.38 ZM 559.51 347.90 C561.21,345.94 562.27,344.64 562.38,344.35 C562.68,344.29 561.49,345.74 559.51,347.90 ZM 559.49 291.06 L 556.93 293.75 L 559.49 290.88 ZM 756.65 491.54 C756.36,491.15 755.95,490.58 755.43,489.87 C754.36,488.33 753.12,486.59 751.79,484.72 C753.64,487.30 755.31,489.64 756.65,491.54 ZM 486.23 496.29 C488.30,496.69 488.27,496.74 485.89,496.86 C485.61,496.88 485.36,496.89 485.13,496.88 C485.32,496.88 485.53,496.87 485.75,496.86 C488.14,496.75 488.20,496.67 486.23,496.29 ZM 744.32 474.34 C742.21,471.43 740.12,468.55 738.26,466.00 C738.02,465.66 737.78,465.33 737.54,465.01 C739.62,467.85 741.95,471.07 744.32,474.34 ZM 560.92 344.49 C560.55,344.26 560.25,343.72 560.00,342.80 C560.03,342.91 560.06,343.01 560.10,343.11 C560.33,343.83 560.60,344.28 560.92,344.49 Z" fill="rgb(68,24,129)"/>
<path d="M 656.36 486.25 C652.74,481.29 647.74,474.31 644.00,469.00 C639.33,462.35 632.23,452.32 628.23,446.71 C624.23,441.09 619.38,434.25 617.44,431.50 C615.51,428.75 608.93,419.52 602.83,411.00 C596.73,402.48 590.16,393.14 588.23,390.25 C586.30,387.36 584.15,385.00 583.46,385.00 C582.76,385.00 579.80,387.81 576.88,391.25 C573.95,394.69 568.96,400.33 565.78,403.79 C562.41,407.45 559.99,411.00 559.98,412.29 C559.97,413.80 559.71,414.10 559.16,413.22 C558.58,412.32 556.78,413.76 552.92,418.22 C556.90,413.62 558.59,412.29 559.25,413.22 C559.81,414.02 559.92,413.12 559.54,410.81 C558.59,405.05 559.71,402.84 566.02,398.00 C569.25,395.52 572.33,392.38 572.87,391.00 C574.20,387.56 579.73,382.00 581.80,382.01 C586.19,382.05 587.87,383.47 591.92,390.59 C594.42,394.98 596.59,397.75 597.23,397.36 C597.87,396.96 598.02,397.16 597.60,397.83 C597.20,398.48 598.51,400.72 600.59,402.97 C605.77,408.56 607.26,410.89 606.66,412.43 C606.38,413.17 606.78,414.66 607.54,415.75 C608.30,416.84 608.72,417.94 608.47,418.19 C608.22,418.45 609.36,418.45 611.01,418.21 C613.90,417.79 614.70,418.86 614.09,422.34 C614.01,422.80 615.19,424.66 616.72,426.48 C623.65,434.72 625.00,436.49 625.00,437.32 C625.00,437.81 626.12,439.55 627.50,441.18 C628.88,442.82 630.00,444.75 630.00,445.49 C630.00,446.22 631.36,447.97 633.03,449.37 C634.70,450.77 636.74,453.85 637.56,456.21 C638.39,458.57 640.51,461.92 642.28,463.65 C650.38,471.59 653.32,475.34 655.11,480.05 C656.17,482.84 656.77,485.56 656.45,486.09 C656.41,486.14 656.38,486.20 656.36,486.25 ZM 484.10 164.19 C483.98,164.07 483.90,164.00 483.86,164.00 C483.61,164.00 483.71,164.55 484.03,165.41 C483.73,173.60 483.49,216.35 483.48,267.44 C483.47,369.77 483.49,370.87 485.41,369.19 C485.81,368.84 486.30,368.39 486.96,367.74 L 482.00 372.92 L 482.00 266.46 C482.00,207.91 482.38,160.00 482.83,160.00 C483.29,160.00 483.67,160.56 483.67,161.25 C483.68,161.93 486.29,166.17 492.29,175.16 C488.00,168.86 484.46,164.00 484.14,164.00 C484.13,164.00 484.11,164.06 484.10,164.19 ZM 634.72 323.59 C634.77,323.49 634.78,323.42 634.76,323.37 C634.99,322.03 635.83,320.12 636.97,318.72 C637.52,318.05 639.49,315.48 641.35,313.00 C643.21,310.52 645.35,308.65 646.11,308.83 C646.88,309.02 647.19,308.86 646.82,308.48 C645.83,307.50 652.08,300.93 653.29,301.68 C653.85,302.03 654.03,301.86 653.69,301.31 C653.35,300.75 653.97,299.33 655.07,298.15 C656.18,296.97 656.72,296.00 656.29,295.99 C655.86,295.99 656.72,295.18 658.21,294.20 C660.90,292.43 664.70,287.90 669.49,280.78 C670.86,278.73 673.23,276.42 674.75,275.63 C677.82,274.04 681.68,270.14 681.16,269.15 C680.98,268.79 680.33,267.90 679.73,267.17 C678.90,266.17 679.15,265.36 680.38,264.80 C682.49,264.70 684.11,264.59 685.00,264.47 C686.41,264.27 687.49,264.09 688.42,263.82 L 690.50 263.81 L 696.00 257.64 C699.03,254.24 705.39,247.20 710.14,241.98 C713.42,238.38 720.45,230.59 728.00,222.22 C721.68,229.24 716.76,234.71 715.59,236.00 C696.17,257.43 688.53,265.97 677.00,279.11 C669.58,287.58 657.54,301.10 650.25,309.16 C642.96,317.23 637.00,324.48 637.00,325.28 C637.00,325.60 637.16,326.10 637.44,326.69 C636.65,325.71 635.78,325.01 635.27,325.01 C634.77,325.00 634.62,324.43 634.72,323.59 ZM 760.41 496.85 C760.94,497.71 749.03,498.00 713.09,498.00 L 665.05 498.00 L 658.78 489.54 C658.19,488.74 657.50,487.82 656.75,486.79 C656.77,486.78 656.79,486.78 656.81,486.77 C658.48,486.29 664.10,491.03 663.37,492.30 C662.99,492.96 663.01,493.20 663.42,492.84 C663.83,492.47 665.81,492.86 667.83,493.70 C670.91,494.99 677.73,495.23 710.45,495.23 C730.87,495.23 749.92,495.52 754.18,495.89 C756.62,496.35 759.15,496.66 759.74,496.44 C759.91,496.44 760.00,496.42 760.00,496.39 C760.00,496.33 759.37,495.41 758.30,493.88 C758.19,493.69 758.06,493.48 757.89,493.23 C759.27,495.19 760.19,496.50 760.41,496.85 ZM 560.75 287.96 C559.61,288.78 559.20,288.63 558.62,288.41 C556.48,287.59 556.38,278.21 558.47,275.44 C558.99,274.75 559.44,273.76 559.69,272.86 C559.82,274.23 559.91,276.29 559.93,278.75 C559.97,283.56 560.33,287.54 560.75,287.96 ZM 788.46 476.88 C789.35,479.29 789.89,481.44 789.67,481.67 C789.24,482.09 781.00,463.86 781.00,462.49 C781.00,460.43 786.36,467.42 786.58,469.78 C786.73,471.27 787.57,474.47 788.46,476.88 ZM 638.39 266.88 C639.32,265.04 640.26,264.57 642.55,264.81 C643.31,264.89 644.48,264.96 645.94,265.01 C646.95,265.21 647.90,265.37 648.50,265.46 C649.60,265.62 650.95,265.84 651.50,265.96 C652.32,266.13 642.17,268.72 639.81,268.94 C639.43,268.97 638.83,268.53 638.47,267.96 C638.32,267.71 638.23,267.46 638.19,267.22 C638.28,267.09 638.34,266.97 638.39,266.88 ZM 594.50 252.47 C603.22,243.13 626.08,218.60 645.50,197.72 C625.70,219.01 600.28,246.34 589.01,258.46 C583.92,263.94 578.83,269.38 574.56,273.92 C580.02,268.01 587.88,259.55 594.50,252.47 ZM 502.75 351.06 C505.41,348.20 508.49,344.89 512.06,341.04 C519.45,333.09 531.12,320.72 538.00,313.54 C531.12,320.72 519.46,333.09 512.09,341.04 C509.19,344.16 505.93,347.66 502.75,351.06 ZM 756.81 491.75 C756.76,491.69 756.71,491.62 756.65,491.54 C755.31,489.64 753.64,487.30 751.79,484.72 C751.41,484.18 751.01,483.63 750.61,483.07 C753.25,486.74 755.65,490.09 757.43,492.59 C757.24,492.33 757.04,492.06 756.81,491.75 ZM 748.83 159.03 L 748.77 159.03 C743.72,159.01 738.34,159.00 732.75,159.00 L 681.50 159.01 L 646.00 197.18 L 681.50 159.01 L 732.75 159.00 C738.36,159.00 743.77,159.01 748.83,159.03 ZM 518.44 213.61 L 518.37 213.51 C514.27,207.48 510.76,202.34 508.47,199.00 C508.03,198.35 507.51,197.60 506.94,196.77 L 506.78 196.52 C507.34,197.33 507.90,198.16 508.48,199.00 C510.83,202.43 514.35,207.60 518.44,213.61 Z" fill="rgb(64,28,107)"/>
<path d="M 527.25 226.51 C523.98,221.63 520.90,217.14 518.44,213.61 C514.35,207.60 510.83,202.43 508.48,199.00 C507.90,198.16 507.34,197.33 506.78,196.52 C503.58,191.66 499.41,185.53 495.50,179.90 L 495.50 179.90 C494.88,178.99 494.28,178.10 493.71,177.25 C493.23,176.54 492.76,175.84 492.29,175.16 L 492.29 175.16 C486.29,166.17 483.68,161.93 483.67,161.25 C483.67,160.56 483.29,160.00 482.83,160.00 C482.38,160.00 482.00,207.91 482.00,266.46 L 482.00 365.52 L 481.76 265.94 L 481.50 158.98 L 521.00 159.24 L 560.50 159.50 L 561.00 223.83 L 561.49 287.37 C561.21,287.61 560.97,287.80 560.75,287.96 C560.33,287.54 559.97,283.56 559.93,278.75 C559.91,276.29 559.82,274.23 559.69,272.86 C559.83,272.36 559.91,271.89 559.90,271.50 C559.86,269.78 559.77,269.74 559.18,271.21 C558.70,272.43 556.47,269.82 550.35,260.80 C550.27,260.63 550.18,260.45 550.06,260.25 C549.59,259.43 548.54,257.93 547.56,256.65 C543.20,250.17 537.73,242.08 532.20,233.90 L 532.20 233.90 C530.67,231.61 529.00,229.11 527.25,226.51 ZM 486.23 496.29 C484.11,495.88 484.34,495.41 489.71,489.18 C495.45,482.51 509.47,466.62 515.44,460.00 C534.11,439.33 542.76,429.73 547.86,423.99 L 547.86 423.99 L 550.32 421.25 C550.54,421.01 550.73,420.77 550.89,420.56 C551.63,419.71 552.29,418.95 552.92,418.22 C556.78,413.76 558.58,412.32 559.16,413.22 C559.71,414.10 559.97,413.80 559.98,412.29 C559.99,411.00 562.41,407.45 565.78,403.79 C565.96,403.59 566.15,403.38 566.35,403.17 C565.33,404.36 564.30,405.58 563.26,406.82 C561.16,409.33 560.99,410.65 560.57,427.50 C560.33,437.40 560.10,457.31 560.07,471.75 L 560.00 498.00 L 480.72 498.00 L 481.36 491.85 C481.71,488.47 482.06,471.94 482.14,455.10 C482.15,453.05 482.16,451.05 482.17,449.13 C482.10,466.63 482.25,488.45 482.65,491.75 C482.77,492.80 482.88,493.64 483.00,494.31 C483.00,494.37 483.00,494.42 483.00,494.47 C483.00,496.39 483.36,496.89 485.13,496.88 C485.36,496.89 485.61,496.88 485.89,496.86 C488.27,496.74 488.30,496.69 486.23,496.29 ZM 559.49 291.06 L 559.17 315.16 C558.95,331.75 559.09,339.65 560.00,342.80 C560.25,343.72 560.55,344.26 560.92,344.49 C561.30,344.75 561.76,344.69 562.30,344.39 C562.34,344.37 562.36,344.36 562.38,344.35 C562.27,344.64 561.21,345.94 559.51,347.90 C559.05,348.40 558.54,348.94 558.00,349.51 C555.59,352.05 554.40,353.42 554.32,353.77 C550.23,358.32 545.11,363.91 540.21,369.12 C542.39,366.66 543.50,365.07 542.78,365.32 C540.10,366.25 539.65,364.24 541.79,360.86 C543.42,358.29 543.58,357.10 542.79,353.64 C541.11,346.37 540.98,345.61 540.33,339.64 C539.89,335.63 538.95,332.91 537.35,331.00 C536.06,329.47 535.00,327.80 535.00,327.31 C535.00,326.81 534.46,325.86 533.81,325.21 C532.47,323.87 531.75,320.73 532.96,321.47 C534.14,322.21 538.32,318.22 538.47,316.22 C538.54,315.25 538.94,313.80 539.37,312.98 C540.32,311.17 529.94,321.85 512.09,341.07 C508.76,344.64 504.95,348.72 501.35,352.56 C501.80,352.07 502.27,351.57 502.75,351.06 C505.93,347.66 509.19,344.16 512.09,341.04 C519.46,333.09 531.12,320.72 538.00,313.54 C544.88,306.37 552.53,298.37 555.00,295.78 L 555.17 295.60 C555.67,295.12 556.22,294.55 556.76,293.94 L 556.93 293.75 ZM 576.93 391.18 C579.76,387.87 582.61,385.15 583.40,385.01 C582.78,385.14 580.38,387.47 576.93,391.18 ZM 515.50 396.00 C521.86,388.97 528.96,381.21 533.73,376.07 C528.66,381.57 521.64,389.24 515.52,396.00 C505.88,406.65 497.63,415.52 491.96,421.37 C497.64,415.51 505.89,406.63 515.50,396.00 Z" fill="rgb(94,72,209)"/>
<path d="M 515.50 396.00 C510.17,401.90 505.25,407.26 500.96,411.87 C506.27,406.12 510.84,400.93 511.18,400.03 C511.55,399.02 512.34,397.91 512.93,397.54 C513.52,397.18 514.00,396.01 514.00,394.94 C514.00,393.87 514.36,393.00 514.79,393.00 C515.59,393.00 518.74,384.45 519.49,380.24 C520.09,376.85 518.11,365.99 516.45,363.63 C515.65,362.49 515.00,360.11 515.00,358.33 C515.00,356.42 514.07,354.03 512.73,352.47 C510.77,350.19 509.95,349.92 506.83,350.50 C503.93,351.05 501.07,353.37 492.61,362.03 L 483.63 371.21 L 486.96 367.74 L 486.96 367.74 C489.07,365.65 492.95,361.57 501.35,352.56 L 501.35 352.56 C504.96,348.72 508.77,344.64 512.09,341.07 C529.94,321.85 540.32,311.17 539.37,312.98 C538.94,313.80 538.54,315.25 538.47,316.22 C538.32,318.22 534.14,322.21 532.96,321.47 C531.75,320.73 532.47,323.87 533.81,325.21 C534.46,325.86 535.00,326.81 535.00,327.31 C535.00,327.80 536.06,329.47 537.35,331.00 C538.95,332.91 539.89,335.63 540.33,339.64 C540.98,345.61 541.11,346.37 542.79,353.64 C543.58,357.10 543.42,358.29 541.79,360.86 C539.65,364.24 540.10,366.25 542.78,365.32 C543.50,365.07 542.39,366.66 540.21,369.12 C539.78,369.58 539.36,370.03 538.93,370.48 C537.69,371.79 535.89,373.73 533.73,376.07 C528.96,381.21 521.86,388.97 515.50,396.00 ZM 483.90 428.99 C483.88,429.00 483.86,429.00 483.84,429.00 C483.46,429.00 482.94,427.99 482.71,426.75 C482.93,427.91 483.45,428.88 483.90,428.99 Z" fill="rgb(105,51,209)"/>
<path d="M 483.90 428.99 C483.45,428.88 482.93,427.91 482.71,426.75 C482.41,425.19 482.23,435.93 482.17,449.13 C482.16,451.05 482.15,453.05 482.14,455.10 C482.07,469.66 481.80,484.00 481.50,489.79 L 481.50 158.98 L 481.76 265.94 L 482.00 365.52 L 482.00 372.92 L 483.63 371.21 L 483.64 371.21 L 492.61 362.03 C501.07,353.37 503.93,351.05 506.83,350.50 C509.95,349.92 510.77,350.19 512.73,352.47 C514.07,354.03 515.00,356.42 515.00,358.33 C515.00,360.11 515.65,362.49 516.45,363.63 C518.11,365.99 520.09,376.85 519.49,380.24 C518.74,384.45 515.59,393.00 514.79,393.00 C514.36,393.00 514.00,393.87 514.00,394.94 C514.00,396.01 513.52,397.18 512.93,397.54 C512.34,397.91 511.55,399.02 511.18,400.03 C510.84,400.93 506.27,406.12 500.96,411.87 C497.54,415.53 494.52,418.72 492.01,421.32 L 491.96 421.37 C487.42,426.05 484.54,428.80 483.90,428.99 Z" fill="rgb(132,32,209)"/>
<path d="M 765.90 596.08 C764.56,596.93 732.72,597.12 726.50,596.31 C713.05,594.57 691.00,588.89 691.00,587.18 C691.00,586.78 691.61,585.56 692.35,584.47 C693.09,583.39 696.09,576.88 699.03,570.00 C701.96,563.12 704.96,556.91 705.68,556.18 C706.41,555.45 707.00,554.11 707.00,553.20 C707.00,552.28 709.58,545.53 712.73,538.19 C716.17,530.16 717.24,526.74 719.41,525.78 C720.94,525.10 723.02,525.66 726.88,526.70 C727.81,526.95 728.84,527.23 730.00,527.52 C734.57,528.69 739.36,529.07 746.11,528.81 C754.80,528.48 756.45,528.08 763.24,524.72 C773.37,519.72 780.90,511.63 787.29,498.89 C791.41,490.69 791.94,488.97 791.06,486.67 C790.51,485.20 790.38,483.99 790.77,483.98 C791.17,483.98 790.99,483.64 790.36,483.23 C789.74,482.83 788.01,479.58 786.52,476.00 C785.04,472.42 782.32,466.53 780.49,462.90 C778.66,459.28 777.01,455.45 776.83,454.40 C776.65,453.36 776.23,452.27 775.89,452.00 C775.56,451.73 772.25,444.75 768.55,436.50 C756.59,409.88 734.97,361.97 726.84,344.11 C718.91,326.67 716.74,320.09 723.08,332.74 C724.95,336.46 727.05,340.10 727.75,340.83 C728.45,341.56 728.74,342.61 728.40,343.15 C728.07,343.70 728.68,345.13 729.77,346.32 C732.31,349.12 734.00,352.41 734.00,354.58 C734.00,355.52 735.46,358.59 737.25,361.40 C739.04,364.20 741.63,368.66 743.00,371.30 C745.92,376.92 751.35,380.44 758.28,381.22 C762.07,381.65 762.91,381.44 763.30,379.95 C763.56,378.97 763.32,377.72 762.77,377.17 C762.22,376.62 762.06,375.70 762.42,375.13 C763.24,373.81 766.00,374.81 766.00,376.43 C766.00,377.22 767.07,377.50 769.00,377.21 C772.26,376.73 772.88,374.97 770.49,372.99 C768.65,371.46 768.99,366.72 771.24,362.50 L 772.84 359.50 L 773.86 362.17 C774.43,363.64 775.53,365.21 776.32,365.67 C779.94,367.77 805.57,412.68 808.52,422.08 C808.93,423.41 810.56,426.38 812.14,428.68 C815.52,433.61 815.62,434.86 813.09,439.82 C812.04,441.88 810.43,446.25 809.51,449.53 C808.59,452.81 806.35,458.42 804.52,462.00 C799.32,472.22 796.02,481.28 795.54,486.67 C795.23,490.18 793.92,493.58 791.05,498.29 C788.82,501.96 787.00,506.03 787.00,507.33 C787.00,509.91 790.84,515.00 792.78,515.00 C793.45,515.00 794.00,515.34 794.00,515.75 C794.01,516.16 795.61,518.24 797.56,520.36 C801.15,524.28 802.73,524.60 808.12,522.51 C809.69,521.91 813.00,524.26 813.00,525.98 C813.00,528.22 803.88,538.19 797.42,543.00 C794.84,544.92 792.00,547.34 791.11,548.37 C785.29,555.13 779.16,558.36 766.07,561.55 C746.68,566.28 733.21,566.57 715.78,562.64 C707.53,560.78 704.79,561.09 703.28,564.08 C700.15,570.31 695.00,582.92 695.00,584.36 C695.00,587.17 702.13,589.84 712.44,590.89 C717.79,591.44 722.69,592.30 723.33,592.81 C725.62,594.60 730.11,595.01 748.59,595.10 C759.94,595.15 766.76,595.54 765.90,596.08 ZM 779.46 593.96 C776.73,594.54 773.49,595.25 772.25,595.53 C771.01,595.81 770.00,595.60 770.00,595.06 C770.00,594.01 774.43,592.63 782.92,591.02 C785.80,590.47 788.56,589.77 789.07,589.46 C789.57,589.15 789.71,589.59 789.38,590.44 C789.06,591.29 788.37,591.73 787.85,591.41 C787.33,591.09 786.35,591.29 785.67,591.86 C784.98,592.43 782.19,593.37 779.46,593.96 ZM 788.46 476.88 C787.57,474.47 786.73,471.27 786.58,469.78 C786.36,467.42 781.00,460.43 781.00,462.49 C781.00,463.86 789.24,482.09 789.67,481.67 C789.89,481.44 789.35,479.29 788.46,476.88 ZM 714.88 313.39 C716.65,317.15 717.97,320.94 717.80,321.82 C717.63,322.70 715.99,320.17 714.16,316.20 C712.33,312.23 711.02,308.44 711.24,307.77 C711.46,307.11 713.10,309.63 714.88,313.39 ZM 701.38 284.25 C702.36,288.36 701.17,287.57 699.11,282.75 C695.98,275.44 695.62,273.10 698.29,277.50 C699.63,279.70 701.02,282.74 701.38,284.25 ZM 706.99 295.98 C708.16,298.27 708.98,300.87 708.81,301.75 C708.63,302.64 707.44,301.08 706.08,298.17 C703.17,291.96 703.96,290.05 706.99,295.98 ZM 751.41 387.51 C752.31,388.88 753.25,390.00 753.50,390.00 C754.21,390.00 752.83,383.60 751.90,382.58 C750.24,380.75 749.81,385.06 751.41,387.51 Z" fill="rgb(136,38,122)"/>
<path d="M 765.90 596.08 C766.76,595.54 759.94,595.15 748.59,595.10 C730.11,595.01 725.62,594.60 723.33,592.81 C722.69,592.30 717.79,591.44 712.44,590.89 C702.13,589.84 695.00,587.17 695.00,584.36 C695.00,582.92 700.15,570.31 703.28,564.08 C704.79,561.09 707.53,560.78 715.78,562.64 C733.21,566.57 746.68,566.28 766.07,561.55 C779.16,558.36 785.29,555.13 791.11,548.37 C792.00,547.34 794.84,544.92 797.42,543.00 C803.88,538.19 813.00,528.22 813.00,525.98 C813.00,524.26 809.69,521.91 808.12,522.51 C802.73,524.60 801.15,524.28 797.56,520.36 C795.61,518.24 794.01,516.16 794.00,515.75 C794.00,515.34 793.45,515.00 792.78,515.00 C790.84,515.00 787.00,509.91 787.00,507.33 C787.00,506.03 788.82,501.96 791.05,498.29 C793.92,493.58 795.23,490.18 795.54,486.67 C796.02,481.28 799.32,472.22 804.52,462.00 C806.35,458.42 808.59,452.81 809.51,449.53 C810.43,446.25 812.04,441.88 813.09,439.82 C815.62,434.86 815.52,433.61 812.14,428.68 C810.56,426.38 808.93,423.41 808.52,422.08 C805.57,412.68 779.94,367.77 776.32,365.67 C775.53,365.21 774.43,363.64 773.86,362.17 L 772.84 359.50 L 771.24 362.50 C768.99,366.72 768.65,371.46 770.49,372.99 C772.88,374.97 772.26,376.73 769.00,377.21 C767.07,377.50 766.00,377.22 766.00,376.43 C766.00,374.81 763.24,373.81 762.42,375.13 C762.06,375.70 762.22,376.62 762.77,377.17 C763.32,377.72 763.56,378.97 763.30,379.95 C762.91,381.44 762.07,381.65 758.28,381.22 C751.35,380.44 745.92,376.92 743.00,371.30 C741.63,368.66 739.04,364.20 737.25,361.40 C735.46,358.59 734.00,355.52 734.00,354.58 C734.00,352.41 732.31,349.12 729.77,346.32 C728.68,345.13 728.07,343.70 728.40,343.15 C728.74,342.61 728.45,341.56 727.75,340.83 C727.05,340.10 724.95,336.46 723.08,332.74 C716.74,320.09 718.91,326.67 726.84,344.11 C731.08,353.42 738.98,370.90 747.27,389.27 C735.24,362.60 726.13,342.54 722.17,334.00 C720.51,330.42 719.01,326.83 718.83,326.00 C718.65,325.17 718.25,324.27 717.95,324.00 C717.34,323.45 708.34,303.74 698.43,281.25 C692.85,268.59 692.32,266.83 693.65,265.50 C694.93,264.21 700.95,264.03 736.82,264.22 C771.29,264.40 774.70,264.53 756.51,264.97 C740.71,265.35 734.97,265.44 734.11,267.52 C733.63,268.70 734.70,270.52 736.40,273.39 L 736.63 273.78 C738.17,276.38 740.41,280.52 741.61,283.00 C746.67,293.40 765.33,330.74 766.85,333.50 C776.10,350.30 780.75,357.94 783.15,360.30 C784.72,361.84 786.00,363.92 786.00,364.93 C786.00,368.13 788.56,369.43 792.04,367.98 C795.49,366.56 797.00,364.29 797.00,360.57 C797.00,358.71 797.53,358.00 798.89,358.00 C799.93,358.00 801.04,357.33 801.36,356.52 C802.41,353.77 805.23,355.99 804.76,359.19 C804.25,362.63 805.22,363.49 807.98,362.01 C810.52,360.65 810.96,353.00 808.50,353.00 C807.35,353.00 807.00,351.73 807.00,347.53 C807.00,344.53 806.37,340.59 805.60,338.78 C804.82,336.98 803.62,333.48 802.92,331.00 C802.22,328.52 800.86,324.90 799.90,322.95 C797.79,318.64 796.25,311.01 797.79,312.50 C798.73,313.40 817.86,359.30 820.30,366.50 C820.86,368.15 822.51,372.20 823.96,375.50 C825.42,378.80 827.23,383.52 827.98,386.00 C828.73,388.48 829.72,390.93 830.17,391.45 C831.49,392.96 831.15,395.70 829.08,400.26 C825.87,407.34 820.96,419.08 817.96,426.85 C815.70,432.72 815.33,434.74 816.11,436.85 C816.66,438.31 821.58,448.53 827.05,459.56 C832.52,470.59 837.00,480.32 837.00,481.19 C837.00,482.81 835.28,487.43 831.94,494.74 C830.87,497.07 830.00,499.35 830.00,499.80 C830.00,501.09 821.21,517.76 816.72,525.00 C811.08,534.09 806.46,539.54 799.50,545.30 C796.20,548.04 792.70,551.51 791.72,553.03 C790.74,554.54 788.65,556.32 787.06,556.97 C785.48,557.63 783.01,559.48 781.58,561.08 C780.15,562.69 778.54,564.00 777.99,564.00 C776.07,564.00 777.03,566.06 779.36,566.95 C780.66,567.44 781.95,568.71 782.23,569.77 C782.51,570.83 783.70,571.95 784.87,572.26 C786.53,572.69 787.14,572.27 787.61,570.41 C788.49,566.92 791.04,567.43 795.50,572.00 C797.65,574.20 799.95,576.00 800.62,576.00 C801.29,576.00 802.01,576.54 802.23,577.20 C802.54,578.11 803.38,578.08 805.82,577.08 C808.84,575.82 810.14,574.00 808.00,574.00 C807.45,574.00 807.00,573.33 807.00,572.50 C807.00,570.83 810.53,570.44 811.50,572.00 C812.61,573.80 816.19,573.06 821.15,570.00 C823.84,568.35 826.27,567.00 826.56,567.00 C826.86,567.00 829.89,564.30 833.30,561.01 C842.20,552.40 842.65,553.60 833.89,562.58 C824.02,572.71 815.61,578.88 803.53,584.89 C798.10,587.60 793.49,589.61 788.89,591.21 C789.09,591.02 789.26,590.76 789.38,590.44 C789.71,589.59 789.57,589.15 789.07,589.46 C788.56,589.77 785.80,590.47 782.92,591.02 C774.43,592.63 770.00,594.01 770.00,595.06 C770.00,595.34 770.29,595.54 770.74,595.61 C769.42,595.80 767.75,595.97 765.82,596.12 C765.85,596.11 765.88,596.09 765.90,596.08 ZM 714.88 313.39 C713.10,309.63 711.46,307.11 711.24,307.77 C711.02,308.44 712.33,312.23 714.16,316.20 C715.99,320.17 717.63,322.70 717.80,321.82 C717.97,320.94 716.65,317.15 714.88,313.39 ZM 701.38 284.25 C701.02,282.74 699.63,279.70 698.29,277.50 C695.62,273.10 695.98,275.44 699.11,282.75 C701.17,287.57 702.36,288.36 701.38,284.25 ZM 706.99 295.98 C703.96,290.05 703.17,291.96 706.08,298.17 C707.44,301.08 708.63,302.64 708.81,301.75 C708.98,300.87 708.16,298.27 706.99,295.98 ZM 751.41 387.51 C749.81,385.06 750.24,380.75 751.90,382.58 C752.83,383.60 754.21,390.00 753.50,390.00 C753.25,390.00 752.31,388.88 751.41,387.51 ZM 786.00 567.06 C786.00,567.58 785.34,568.00 784.53,568.00 C783.64,568.00 783.29,567.41 783.64,566.51 C784.23,564.97 786.00,565.38 786.00,567.06 ZM 751.34 596.79 C741.46,597.02 731.07,596.90 726.50,596.31 C730.00,596.77 741.61,596.90 751.34,596.79 ZM 782.76 593.09 C784.15,592.65 785.27,592.19 785.67,591.86 C786.35,591.29 787.33,591.09 787.85,591.41 C787.92,591.45 787.98,591.48 788.05,591.49 C786.31,592.08 784.55,592.61 782.76,593.09 ZM 769.45 438.51 C771.99,444.11 774.22,448.87 775.28,450.93 C774.21,448.85 771.94,444.03 769.45,438.51 Z" fill="rgb(171,36,121)"/>
<path d="M 840.18 555.41 C840.61,554.45 838.27,556.20 833.30,561.01 C829.89,564.30 826.86,567.00 826.56,567.00 C826.27,567.00 823.84,568.35 821.15,570.00 C816.19,573.06 812.61,573.80 811.50,572.00 C810.53,570.44 807.00,570.83 807.00,572.50 C807.00,573.33 807.45,574.00 808.00,574.00 C810.14,574.00 808.84,575.82 805.82,577.08 C803.38,578.08 802.54,578.11 802.23,577.20 C802.01,576.54 801.29,576.00 800.62,576.00 C799.95,576.00 797.65,574.20 795.50,572.00 C791.04,567.43 788.49,566.92 787.61,570.41 C787.14,572.27 786.53,572.69 784.87,572.26 C783.70,571.95 782.51,570.83 782.23,569.77 C781.95,568.71 780.66,567.44 779.36,566.95 C777.03,566.06 776.07,564.00 777.99,564.00 C778.54,564.00 780.15,562.69 781.58,561.08 C783.01,559.48 785.48,557.63 787.06,556.97 C788.65,556.32 790.74,554.54 791.72,553.03 C792.70,551.51 796.20,548.04 799.50,545.30 C806.46,539.54 811.08,534.09 816.72,525.00 C821.21,517.76 830.00,501.09 830.00,499.80 C830.00,499.35 830.87,497.07 831.94,494.74 C835.28,487.43 837.00,482.81 837.00,481.19 C837.00,480.32 832.52,470.59 827.05,459.56 C821.58,448.53 816.66,438.31 816.11,436.85 C815.33,434.74 815.70,432.72 817.96,426.85 C820.96,419.08 825.87,407.34 829.08,400.26 C830.34,397.47 830.96,395.36 830.95,393.80 C831.79,396.72 831.50,400.53 830.06,405.75 C829.07,409.31 830.48,414.44 832.15,413.41 C832.63,413.11 834.25,413.74 835.76,414.79 C837.27,415.85 839.10,416.50 839.84,416.25 C840.78,415.92 841.12,416.63 840.98,418.64 C840.69,422.98 840.95,423.65 842.28,421.96 C842.95,421.11 845.57,419.64 848.10,418.68 C850.63,417.73 854.45,415.48 856.60,413.68 C858.74,411.88 862.92,408.67 865.87,406.53 C870.91,402.89 871.20,402.80 870.54,405.07 C869.55,408.48 864.31,421.27 860.73,429.00 C857.88,435.16 852.93,446.82 847.99,459.00 C846.76,462.02 845.17,465.85 844.45,467.50 C837.76,482.97 837.59,487.52 843.35,496.94 C845.22,500.00 847.09,503.62 847.50,505.00 C847.90,506.38 848.80,508.17 849.50,509.00 C850.19,509.83 852.62,513.83 854.91,517.89 L 859.06 525.28 L 856.12 531.55 C852.64,538.99 846.85,547.49 840.18,555.41 ZM 820.79 367.82 C820.58,367.30 820.42,366.85 820.30,366.50 C817.86,359.30 798.73,313.40 797.79,312.50 C796.25,311.01 797.79,318.64 799.90,322.95 C800.86,324.90 802.22,328.52 802.92,331.00 C803.62,333.48 804.82,336.98 805.60,338.78 C806.37,340.59 807.00,344.53 807.00,347.53 C807.00,351.73 807.35,353.00 808.50,353.00 C810.96,353.00 810.52,360.65 807.98,362.01 C805.22,363.49 804.25,362.63 804.76,359.19 C805.23,355.99 802.41,353.77 801.36,356.52 C801.04,357.33 799.93,358.00 798.89,358.00 C797.53,358.00 797.00,358.71 797.00,360.57 C797.00,364.29 795.49,366.56 792.04,367.98 C788.56,369.43 786.00,368.13 786.00,364.93 C786.00,363.92 784.72,361.84 783.15,360.30 C780.75,357.94 776.10,350.30 766.85,333.50 C765.33,330.74 746.67,293.40 741.61,283.00 C740.41,280.52 738.17,276.38 736.63,273.78 L 736.40 273.39 C734.70,270.52 733.63,268.70 734.11,267.52 C734.97,265.44 740.71,265.35 756.51,264.97 C774.70,264.53 771.29,264.40 736.82,264.22 C708.31,264.07 698.66,264.15 695.25,264.84 C698.67,264.14 708.33,264.00 736.44,264.00 L 777.73 264.00 L 779.87 269.13 C781.04,271.96 782.00,274.88 782.00,275.63 C782.00,276.39 782.38,277.00 782.84,277.00 C783.30,277.00 784.29,278.91 785.03,281.25 C785.77,283.59 786.97,286.39 787.69,287.47 C788.41,288.56 789.00,290.15 789.00,291.01 C789.00,291.87 790.58,295.60 792.50,299.29 C794.42,302.98 796.00,306.81 796.00,307.80 C796.00,308.79 796.45,310.05 796.99,310.59 C798.01,311.61 819.79,363.91 820.69,367.50 C820.72,367.59 820.75,367.70 820.79,367.82 ZM 786.00 567.06 C786.00,565.38 784.23,564.97 783.64,566.51 C783.29,567.41 783.64,568.00 784.53,568.00 C785.34,568.00 786.00,567.58 786.00,567.06 ZM 790.99 590.45 C794.91,588.98 798.93,587.19 803.53,584.89 C811.73,580.81 818.23,576.66 824.65,571.25 C821.47,573.99 818.32,576.38 815.32,578.29 C807.08,583.54 799.19,587.51 790.99,590.45 ZM 829.72 390.67 C829.22,389.64 828.53,387.82 827.98,386.00 C827.66,384.94 827.14,383.46 826.54,381.86 C826.98,383.02 827.37,384.09 827.64,384.94 C828.22,386.71 829.03,388.94 829.72,390.67 Z" fill="rgb(211,52,101)"/>
<path d="M 854.39 535.00 C855.02,533.83 855.60,532.68 856.12,531.55 L 859.06 525.28 L 854.91 517.89 C852.62,513.83 850.19,509.83 849.50,509.00 C848.80,508.17 847.90,506.38 847.50,505.00 C847.09,503.62 845.22,500.00 843.35,496.94 C837.59,487.52 837.76,482.97 844.45,467.50 C845.17,465.85 846.76,462.02 847.99,459.00 C852.93,446.82 857.88,435.16 860.73,429.00 C864.31,421.27 869.55,408.48 870.54,405.07 C871.20,402.80 870.91,402.89 865.87,406.53 C862.92,408.67 858.74,411.88 856.60,413.68 C854.45,415.48 850.63,417.73 848.10,418.68 C845.57,419.64 842.95,421.11 842.28,421.96 C840.95,423.65 840.69,422.98 840.98,418.64 C841.12,416.63 840.78,415.92 839.84,416.25 C839.10,416.50 837.27,415.85 835.76,414.79 C834.25,413.74 832.63,413.11 832.15,413.41 C830.48,414.44 829.07,409.31 830.06,405.75 C831.50,400.53 831.79,396.72 830.95,393.80 C830.95,393.35 830.89,392.95 830.79,392.60 C831.46,393.81 831.96,394.33 832.21,393.99 C832.56,393.52 834.54,388.82 842.32,370.00 C851.00,349.01 860.21,327.46 860.70,327.00 C861.51,326.23 859.88,337.17 858.76,340.00 C858.22,341.38 857.62,344.08 857.42,346.00 C857.23,347.92 856.78,350.74 856.42,352.25 C855.84,354.71 856.04,355.00 858.36,355.00 C861.59,355.00 864.26,351.24 863.61,347.61 C863.35,346.18 863.55,345.00 864.07,345.00 C864.58,345.00 865.00,345.79 865.00,346.75 C865.00,347.71 866.10,349.77 867.43,351.32 C869.78,354.05 870.13,354.14 878.09,353.85 C888.90,353.45 889.35,354.10 885.69,364.68 C884.20,368.98 882.98,373.40 882.99,374.51 C882.99,375.61 881.88,378.63 880.50,381.21 C879.12,383.80 878.00,387.17 877.99,388.70 C877.99,390.24 877.09,392.85 876.00,394.50 C874.91,396.15 874.01,398.30 874.01,399.29 C874.00,400.27 873.36,402.07 872.58,403.29 C871.80,404.50 870.88,407.29 870.55,409.47 C870.21,411.66 868.60,415.82 866.96,418.72 C865.32,421.62 864.17,424.00 864.40,424.00 C865.23,424.00 862.22,433.61 859.71,439.00 C858.30,442.02 856.38,447.20 855.44,450.50 C854.50,453.80 853.36,456.97 852.91,457.54 C852.47,458.11 851.87,459.91 851.58,461.54 C851.12,464.16 851.52,464.76 855.03,466.78 C857.21,468.03 859.00,469.69 859.00,470.46 C859.00,471.23 860.24,472.82 861.75,474.01 C863.26,475.19 865.18,477.58 866.00,479.32 C868.87,485.33 872.57,483.04 874.51,474.04 C874.99,471.81 876.97,468.92 880.07,465.93 C882.72,463.38 885.19,459.98 885.56,458.39 C885.93,456.80 886.79,454.60 887.47,453.50 C888.14,452.40 889.22,449.92 889.85,448.00 C890.49,446.08 893.05,441.35 895.53,437.50 C898.02,433.65 901.01,427.90 902.17,424.72 C903.34,421.54 904.68,418.70 905.15,418.41 C905.27,418.33 905.40,418.24 905.51,418.15 C905.72,417.99 905.89,417.86 905.96,417.90 C906.35,418.11 904.39,422.59 892.68,449.44 C891.35,452.49 889.89,455.84 888.29,459.50 C873.22,494.07 870.58,500.14 865.03,513.00 C861.37,521.47 857.92,528.66 854.39,535.00 ZM 840.18 555.41 C844.30,550.51 848.09,545.39 851.21,540.44 C847.35,546.72 843.31,552.18 838.73,557.36 C839.54,556.40 840.03,555.74 840.18,555.41 ZM 790.99 590.45 C797.67,588.05 804.13,584.98 810.76,581.09 C804.01,585.20 796.91,588.50 789.38,591.04 C789.91,590.85 790.45,590.65 790.99,590.45 ZM 829.72 390.67 C829.24,389.47 828.71,388.03 828.23,386.67 C828.97,388.66 829.66,390.31 830.25,391.55 C830.23,391.51 830.20,391.48 830.17,391.45 C830.05,391.31 829.90,391.04 829.72,390.67 ZM 820.79 367.82 C820.75,367.70 820.72,367.59 820.69,367.50 C820.35,366.13 816.96,357.65 812.84,347.63 C816.96,357.64 820.35,366.12 820.70,367.50 C820.72,367.60 820.75,367.72 820.79,367.85 Z" fill="rgb(221,100,91)"/>
<path d="M 897.20 439.07 C904.91,421.38 906.29,418.08 905.96,417.90 C905.89,417.86 905.72,417.99 905.51,418.15 C905.40,418.24 905.27,418.33 905.15,418.41 C904.68,418.70 903.34,421.54 902.17,424.72 C901.01,427.90 898.02,433.65 895.53,437.50 C893.05,441.35 890.49,446.08 889.85,448.00 C889.22,449.92 888.14,452.40 887.47,453.50 C886.79,454.60 885.93,456.80 885.56,458.39 C885.19,459.98 882.72,463.38 880.07,465.93 C876.97,468.92 874.99,471.81 874.51,474.04 C872.57,483.04 868.87,485.33 866.00,479.32 C865.18,477.58 863.26,475.19 861.75,474.01 C860.24,472.82 859.00,471.23 859.00,470.46 C859.00,469.69 857.21,468.03 855.03,466.78 C851.52,464.76 851.12,464.16 851.58,461.54 C851.87,459.91 852.47,458.11 852.91,457.54 C853.36,456.97 854.50,453.80 855.44,450.50 C856.38,447.20 858.30,442.02 859.71,439.00 C862.22,433.61 865.23,424.00 864.40,424.00 C864.17,424.00 865.32,421.62 866.96,418.72 C868.60,415.82 870.21,411.66 870.55,409.47 C870.88,407.29 871.80,404.50 872.58,403.29 C873.36,402.07 874.00,400.27 874.01,399.29 C874.01,398.30 874.91,396.15 876.00,394.50 C877.09,392.85 877.99,390.24 877.99,388.70 C878.00,387.17 879.12,383.80 880.50,381.21 C881.88,378.63 882.99,375.61 882.99,374.51 C882.98,373.40 884.20,368.98 885.69,364.68 C889.35,354.10 888.90,353.45 878.09,353.85 C870.13,354.14 869.78,354.05 867.43,351.32 C866.10,349.77 865.00,347.71 865.00,346.75 C865.00,345.79 864.58,345.00 864.07,345.00 C863.55,345.00 863.35,346.18 863.61,347.61 C864.26,351.24 861.59,355.00 858.36,355.00 C856.04,355.00 855.84,354.71 856.42,352.25 C856.78,350.74 857.23,347.92 857.42,346.00 C857.62,344.08 858.22,341.38 858.76,340.00 C859.83,337.29 861.37,327.15 860.79,326.96 C861.28,325.94 861.70,325.12 862.04,324.50 C863.55,321.75 865.57,317.02 866.53,314.00 C867.50,310.98 868.90,307.61 869.64,306.53 C870.39,305.44 871.00,303.94 871.00,303.20 C871.00,302.45 874.65,293.32 879.11,282.92 L 887.23 264.00 L 909.11 264.00 C923.76,264.00 931.00,264.35 931.00,265.05 C931.00,265.63 930.11,267.77 929.03,269.80 C927.09,273.44 925.52,277.17 914.67,304.00 C908.63,318.93 901.46,335.85 889.04,364.50 C878.41,389.01 875.92,395.21 876.87,394.82 C877.85,394.41 889.61,380.94 898.52,370.00 C902.33,365.33 908.16,358.30 911.47,354.39 C914.79,350.49 918.18,346.44 919.02,345.39 C934.88,325.58 943.87,315.02 948.25,311.05 C949.76,309.68 951.00,308.20 951.00,307.76 C951.00,307.32 952.18,305.17 953.63,302.98 C956.24,299.03 958.00,297.91 958.00,300.18 C958.00,301.16 921.88,383.82 914.82,399.00 C913.32,402.22 909.88,410.02 897.20,439.07 ZM 853.29 343.83 C850.06,351.44 846.14,360.77 842.32,370.00 C846.66,359.51 850.32,350.79 853.29,343.83 ZM 872.63 495.44 C870.03,501.42 867.13,508.13 865.03,513.00 C867.67,506.87 869.65,502.29 872.63,495.44 Z" fill="rgb(237,130,60)"/>
<path d="M 947.49 324.89 C953.56,310.90 958.00,300.52 958.00,300.18 C958.00,297.91 956.24,299.03 953.63,302.98 C952.18,305.17 951.00,307.32 951.00,307.76 C951.00,308.20 949.76,309.68 948.25,311.05 C943.87,315.02 934.88,325.58 919.02,345.39 C918.18,346.44 914.79,350.49 911.47,354.39 C908.16,358.30 902.33,365.33 898.52,370.00 C889.61,380.94 877.85,394.41 876.87,394.82 C875.92,395.21 878.41,389.01 889.04,364.50 C901.46,335.85 908.63,318.93 914.67,304.00 C925.52,277.17 927.09,273.44 929.03,269.80 C930.11,267.77 931.00,265.63 931.00,265.05 C931.00,264.35 923.76,264.00 909.11,264.00 L 887.28 264.00 L 887.50 263.50 L 930.22 263.30 C953.72,263.19 973.19,263.49 973.48,263.97 C973.92,264.69 970.00,274.26 960.54,295.50 C957.19,303.01 952.53,313.52 947.49,324.89 ZM 897.20 439.07 C909.88,410.02 913.32,402.22 914.82,399.00 L 914.86 398.90 C912.37,404.64 908.37,413.76 904.52,422.50 C900.48,431.66 895.31,443.44 891.48,452.19 L 892.68 449.44 C894.39,445.52 895.89,442.09 897.20,439.07 ZM 881.08 278.32 L 879.11 282.92 C874.87,292.82 871.36,301.56 871.03,303.03 C871.04,302.19 874.75,292.95 879.28,282.50 ZM 870.98 303.43 C870.88,304.23 870.32,305.55 869.64,306.53 C870.28,305.60 870.83,304.31 870.98,303.43 Z" fill="rgb(247,183,58)"/>
<path d="M 0.00 378.00 L 0.00 0.00 L 693.50 0.00 L 1387.00 0.00 L 1387.00 378.00 L 1387.00 756.00 L 693.50 756.00 L 0.00 756.00 L 0.00 378.00 ZM 771.62 595.48 C794.91,591.49 814.18,581.65 831.44,564.96 C845.55,551.31 854.42,537.58 865.03,513.00 C868.23,505.58 873.30,493.88 876.30,487.00 C879.30,480.12 884.69,467.75 888.28,459.50 C891.88,451.25 899.18,434.60 904.52,422.50 C909.85,410.40 915.46,397.58 916.98,394.00 C919.06,389.11 948.43,322.70 960.54,295.50 C970.00,274.26 973.92,264.69 973.48,263.97 C973.19,263.49 953.72,263.19 930.22,263.30 L 887.50 263.50 L 879.28 282.50 C874.75,292.95 871.04,302.19 871.03,303.03 C871.01,303.87 870.39,305.44 869.64,306.53 C868.90,307.61 867.50,310.98 866.53,314.00 C865.57,317.02 863.55,321.75 862.04,324.50 C859.60,328.94 853.05,344.07 842.32,370.00 C834.54,388.81 832.56,393.52 832.21,393.99 C831.63,394.78 829.70,390.95 827.45,384.50 C826.29,381.20 824.42,376.48 823.28,374.00 C822.13,371.52 820.97,368.60 820.70,367.50 C819.78,363.89 798.01,311.61 796.99,310.59 C796.45,310.05 796.00,308.79 796.00,307.80 C796.00,306.81 794.42,302.98 792.50,299.29 C790.58,295.60 789.00,291.87 789.00,291.01 C789.00,290.15 788.41,288.56 787.69,287.47 C786.97,286.39 785.77,283.59 785.03,281.25 C784.29,278.91 783.30,277.00 782.84,277.00 C782.38,277.00 782.00,276.39 782.00,275.63 C782.00,274.88 781.04,271.96 779.87,269.13 L 777.73 264.00 L 736.44 264.00 C701.11,264.00 694.93,264.22 693.65,265.50 C692.32,266.83 692.85,268.59 698.43,281.25 C708.34,303.74 717.34,323.45 717.95,324.00 C718.25,324.27 718.65,325.17 718.83,326.00 C719.01,326.83 720.51,330.42 722.17,334.00 C728.29,347.20 746.71,387.92 769.22,438.00 C772.56,445.42 775.56,451.73 775.90,452.00 C776.23,452.27 776.65,453.36 776.83,454.40 C777.01,455.45 778.66,459.28 780.49,462.90 C782.32,466.53 785.04,472.42 786.52,476.00 C788.01,479.58 789.74,482.83 790.36,483.23 C790.99,483.64 791.17,483.98 790.77,483.98 C790.38,483.99 790.51,485.20 791.06,486.67 C791.94,488.97 791.41,490.69 787.29,498.89 C780.90,511.63 773.37,519.72 763.24,524.72 C756.45,528.08 754.80,528.48 746.11,528.81 C739.36,529.07 734.57,528.69 730.00,527.52 C717.30,524.28 719.20,523.10 712.73,538.19 C709.58,545.53 707.00,552.28 707.00,553.20 C707.00,554.11 706.41,555.45 705.68,556.18 C704.96,556.91 701.96,563.12 699.03,570.00 C696.09,576.88 693.09,583.39 692.35,584.47 C691.61,585.56 691.00,586.78 691.00,587.18 C691.00,588.89 713.05,594.57 726.50,596.31 C734.97,597.41 763.41,596.89 771.62,595.48 ZM 560.07 471.75 C560.10,457.31 560.33,437.40 560.57,427.50 C560.99,410.65 561.16,409.33 563.26,406.82 C573.40,394.72 582.39,385.00 583.45,385.00 C584.15,385.00 586.30,387.36 588.23,390.25 C590.16,393.14 596.73,402.48 602.83,411.00 C608.93,419.52 615.51,428.75 617.44,431.50 C619.38,434.25 624.23,441.09 628.23,446.71 C632.23,452.32 639.33,462.35 644.00,469.00 C648.67,475.64 655.32,484.89 658.78,489.54 L 665.05 498.00 L 713.09 498.00 C749.03,498.00 760.94,497.71 760.41,496.85 C759.29,495.04 739.30,467.32 733.10,458.97 C730.02,454.82 724.12,446.77 720.00,441.08 C715.88,435.39 710.16,427.53 707.29,423.61 C704.43,419.70 701.15,415.15 700.02,413.50 C697.86,410.37 686.39,394.61 669.70,371.86 C664.30,364.51 655.75,352.63 650.70,345.45 C645.64,338.28 640.49,331.13 639.25,329.57 C638.01,328.01 637.00,326.08 637.00,325.28 C637.00,324.48 642.96,317.23 650.25,309.16 C657.54,301.10 669.58,287.58 677.00,279.11 C688.53,265.97 696.17,257.43 715.59,236.00 C717.33,234.07 727.48,222.80 738.13,210.95 C748.78,199.10 763.46,182.84 770.75,174.81 C778.04,166.78 784.00,159.94 784.00,159.61 C784.00,159.27 760.94,159.00 732.75,159.00 L 681.50 159.01 L 646.00 197.18 C626.47,218.17 603.30,243.05 594.50,252.47 C585.70,261.88 574.67,273.76 570.00,278.87 L 561.50 288.15 L 561.00 223.83 L 560.50 159.50 L 521.00 159.24 L 481.50 158.98 L 481.50 328.49 L 481.50 498.00 L 520.75 498.00 L 560.00 498.00 L 560.07 471.75 Z" fill="rgb(246,246,246)"/>
</g>
</svg>